<mxfile host="app.diagrams.net" modified="2022-03-12T12:58:17.022Z" agent="5.0 (Windows NT 10.0; Win64; x64) AppleWebKit/537.36 (KHTML, like Gecko) Chrome/99.0.4844.51 Safari/537.36" etag="B9QfbcGgxlYy2LHGRmel" version="17.1.0" type="github">
  <diagram id="kgpKYQtTHZ0yAKxKKP6v" name="Page-1">
    <mxGraphModel dx="1038" dy="579" grid="1" gridSize="10" guides="1" tooltips="1" connect="1" arrows="1" fold="1" page="1" pageScale="1" pageWidth="850" pageHeight="1100" math="0" shadow="0">
      <root>
        <mxCell id="0" />
        <mxCell id="1" parent="0" />
        <mxCell id="MbQovPlUdjyoEpwD81Fg-1" value="Enseignants" style="shape=umlActor;verticalLabelPosition=bottom;verticalAlign=top;html=1;outlineConnect=0;" vertex="1" parent="1">
          <mxGeometry x="130" y="60" width="30" height="60" as="geometry" />
        </mxCell>
        <mxCell id="MbQovPlUdjyoEpwD81Fg-3" value="Page&amp;nbsp;&lt;br&gt;suggestion" style="shape=umlBoundary;whiteSpace=wrap;html=1;" vertex="1" parent="1">
          <mxGeometry x="240" y="60" width="100" height="80" as="geometry" />
        </mxCell>
        <mxCell id="MbQovPlUdjyoEpwD81Fg-4" value="Database" style="ellipse;shape=umlEntity;whiteSpace=wrap;html=1;" vertex="1" parent="1">
          <mxGeometry x="600" y="60" width="80" height="80" as="geometry" />
        </mxCell>
        <mxCell id="MbQovPlUdjyoEpwD81Fg-5" value="Contrôleur" style="ellipse;shape=umlControl;whiteSpace=wrap;html=1;" vertex="1" parent="1">
          <mxGeometry x="440" y="60" width="70" height="80" as="geometry" />
        </mxCell>
        <mxCell id="MbQovPlUdjyoEpwD81Fg-6" value="" style="endArrow=none;dashed=1;html=1;rounded=0;" edge="1" parent="1">
          <mxGeometry width="50" height="50" relative="1" as="geometry">
            <mxPoint x="140" y="800" as="sourcePoint" />
            <mxPoint x="140" y="150" as="targetPoint" />
          </mxGeometry>
        </mxCell>
        <mxCell id="MbQovPlUdjyoEpwD81Fg-7" value="" style="endArrow=none;dashed=1;html=1;rounded=0;" edge="1" parent="1">
          <mxGeometry width="50" height="50" relative="1" as="geometry">
            <mxPoint x="300" y="800" as="sourcePoint" />
            <mxPoint x="300" y="140" as="targetPoint" />
          </mxGeometry>
        </mxCell>
        <mxCell id="MbQovPlUdjyoEpwD81Fg-8" value="" style="endArrow=none;dashed=1;html=1;rounded=0;" edge="1" parent="1">
          <mxGeometry width="50" height="50" relative="1" as="geometry">
            <mxPoint x="480" y="800" as="sourcePoint" />
            <mxPoint x="480" y="140" as="targetPoint" />
          </mxGeometry>
        </mxCell>
        <mxCell id="MbQovPlUdjyoEpwD81Fg-9" value="" style="endArrow=none;dashed=1;html=1;rounded=0;" edge="1" parent="1">
          <mxGeometry width="50" height="50" relative="1" as="geometry">
            <mxPoint x="640" y="800" as="sourcePoint" />
            <mxPoint x="639.5" y="140" as="targetPoint" />
          </mxGeometry>
        </mxCell>
        <mxCell id="MbQovPlUdjyoEpwD81Fg-10" value="Connection" style="rounded=0;whiteSpace=wrap;html=1;" vertex="1" parent="1">
          <mxGeometry x="100" y="180" width="220" height="60" as="geometry" />
        </mxCell>
        <mxCell id="MbQovPlUdjyoEpwD81Fg-11" value="Consulter les suggestion" style="rounded=0;whiteSpace=wrap;html=1;" vertex="1" parent="1">
          <mxGeometry x="100" y="260" width="220" height="60" as="geometry" />
        </mxCell>
        <mxCell id="MbQovPlUdjyoEpwD81Fg-12" value="REF" style="rounded=0;whiteSpace=wrap;html=1;" vertex="1" parent="1">
          <mxGeometry x="100" y="180" width="40" height="20" as="geometry" />
        </mxCell>
        <mxCell id="MbQovPlUdjyoEpwD81Fg-13" value="REF" style="rounded=0;whiteSpace=wrap;html=1;" vertex="1" parent="1">
          <mxGeometry x="100" y="260" width="40" height="20" as="geometry" />
        </mxCell>
        <mxCell id="MbQovPlUdjyoEpwD81Fg-18" value="" style="endArrow=classic;html=1;rounded=0;entryX=-0.05;entryY=0.571;entryDx=0;entryDy=0;entryPerimeter=0;" edge="1" parent="1">
          <mxGeometry relative="1" as="geometry">
            <mxPoint x="140" y="361" as="sourcePoint" />
            <mxPoint x="299.5" y="361.3299999999999" as="targetPoint" />
            <Array as="points">
              <mxPoint x="200.5" y="361" />
            </Array>
          </mxGeometry>
        </mxCell>
        <mxCell id="MbQovPlUdjyoEpwD81Fg-19" value="Cliquer sur&amp;nbsp;&lt;br&gt;le bouton&lt;br&gt;Valider" style="edgeLabel;html=1;align=center;verticalAlign=middle;resizable=0;points=[];" vertex="1" connectable="0" parent="MbQovPlUdjyoEpwD81Fg-18">
          <mxGeometry x="0.0281" y="-2" relative="1" as="geometry">
            <mxPoint as="offset" />
          </mxGeometry>
        </mxCell>
        <mxCell id="MbQovPlUdjyoEpwD81Fg-22" value="" style="endArrow=classic;html=1;rounded=0;entryX=-0.05;entryY=0.571;entryDx=0;entryDy=0;entryPerimeter=0;" edge="1" parent="1">
          <mxGeometry relative="1" as="geometry">
            <mxPoint x="300" y="400" as="sourcePoint" />
            <mxPoint x="479" y="401.3299999999999" as="targetPoint" />
            <Array as="points">
              <mxPoint x="380" y="401" />
            </Array>
          </mxGeometry>
        </mxCell>
        <mxCell id="MbQovPlUdjyoEpwD81Fg-23" value="Demande d&#39;enca-&lt;br&gt;drement" style="edgeLabel;html=1;align=center;verticalAlign=middle;resizable=0;points=[];" vertex="1" connectable="0" parent="MbQovPlUdjyoEpwD81Fg-22">
          <mxGeometry x="0.0281" y="-2" relative="1" as="geometry">
            <mxPoint as="offset" />
          </mxGeometry>
        </mxCell>
        <mxCell id="MbQovPlUdjyoEpwD81Fg-26" value="" style="endArrow=classic;html=1;rounded=0;exitX=0.088;exitY=0.968;exitDx=0;exitDy=0;exitPerimeter=0;entryX=1.312;entryY=0.742;entryDx=0;entryDy=0;entryPerimeter=0;" edge="1" parent="1">
          <mxGeometry relative="1" as="geometry">
            <mxPoint x="480.88000000000005" y="440" as="sourcePoint" />
            <mxPoint x="299.99999999999994" y="441.5999999999999" as="targetPoint" />
            <Array as="points" />
          </mxGeometry>
        </mxCell>
        <mxCell id="MbQovPlUdjyoEpwD81Fg-27" value="Afficher un&lt;br&gt;champs raison" style="edgeLabel;resizable=0;html=1;align=center;verticalAlign=middle;" connectable="0" vertex="1" parent="MbQovPlUdjyoEpwD81Fg-26">
          <mxGeometry relative="1" as="geometry" />
        </mxCell>
        <mxCell id="MbQovPlUdjyoEpwD81Fg-30" value="" style="endArrow=classic;html=1;rounded=0;entryX=1.312;entryY=0.742;entryDx=0;entryDy=0;entryPerimeter=0;" edge="1" parent="1">
          <mxGeometry relative="1" as="geometry">
            <mxPoint x="300" y="482" as="sourcePoint" />
            <mxPoint x="139.55999999999995" y="481.5999999999999" as="targetPoint" />
            <Array as="points" />
          </mxGeometry>
        </mxCell>
        <mxCell id="MbQovPlUdjyoEpwD81Fg-31" value="Page raison affiché" style="edgeLabel;resizable=0;html=1;align=center;verticalAlign=middle;" connectable="0" vertex="1" parent="MbQovPlUdjyoEpwD81Fg-30">
          <mxGeometry relative="1" as="geometry" />
        </mxCell>
        <mxCell id="MbQovPlUdjyoEpwD81Fg-34" value="" style="endArrow=classic;html=1;rounded=0;entryX=-0.05;entryY=0.571;entryDx=0;entryDy=0;entryPerimeter=0;" edge="1" parent="1">
          <mxGeometry relative="1" as="geometry">
            <mxPoint x="140" y="560" as="sourcePoint" />
            <mxPoint x="299.5" y="560.3299999999999" as="targetPoint" />
            <Array as="points">
              <mxPoint x="200.5" y="560" />
            </Array>
          </mxGeometry>
        </mxCell>
        <mxCell id="MbQovPlUdjyoEpwD81Fg-35" value="Remplir le&amp;nbsp;&lt;br&gt;champs raisson" style="edgeLabel;html=1;align=center;verticalAlign=middle;resizable=0;points=[];" vertex="1" connectable="0" parent="MbQovPlUdjyoEpwD81Fg-34">
          <mxGeometry x="0.0281" y="-2" relative="1" as="geometry">
            <mxPoint as="offset" />
          </mxGeometry>
        </mxCell>
        <mxCell id="MbQovPlUdjyoEpwD81Fg-36" value="" style="endArrow=classic;html=1;rounded=0;entryX=-0.05;entryY=0.571;entryDx=0;entryDy=0;entryPerimeter=0;" edge="1" parent="1">
          <mxGeometry relative="1" as="geometry">
            <mxPoint x="140" y="600" as="sourcePoint" />
            <mxPoint x="299.5" y="600.3299999999999" as="targetPoint" />
            <Array as="points">
              <mxPoint x="200.5" y="600" />
            </Array>
          </mxGeometry>
        </mxCell>
        <mxCell id="MbQovPlUdjyoEpwD81Fg-37" value="Cliquer sur&lt;br&gt;valider la raison" style="edgeLabel;html=1;align=center;verticalAlign=middle;resizable=0;points=[];" vertex="1" connectable="0" parent="MbQovPlUdjyoEpwD81Fg-36">
          <mxGeometry x="0.0281" y="-2" relative="1" as="geometry">
            <mxPoint as="offset" />
          </mxGeometry>
        </mxCell>
        <mxCell id="MbQovPlUdjyoEpwD81Fg-38" value="" style="endArrow=classic;html=1;rounded=0;entryX=-0.05;entryY=0.571;entryDx=0;entryDy=0;entryPerimeter=0;" edge="1" parent="1">
          <mxGeometry relative="1" as="geometry">
            <mxPoint x="300" y="640" as="sourcePoint" />
            <mxPoint x="479.5" y="640.3299999999999" as="targetPoint" />
            <Array as="points" />
          </mxGeometry>
        </mxCell>
        <mxCell id="MbQovPlUdjyoEpwD81Fg-39" value="Reçu de la&amp;nbsp;&lt;br&gt;raison" style="edgeLabel;html=1;align=center;verticalAlign=middle;resizable=0;points=[];" vertex="1" connectable="0" parent="MbQovPlUdjyoEpwD81Fg-38">
          <mxGeometry x="0.0281" y="-2" relative="1" as="geometry">
            <mxPoint as="offset" />
          </mxGeometry>
        </mxCell>
        <mxCell id="MbQovPlUdjyoEpwD81Fg-40" value="" style="endArrow=none;html=1;rounded=0;" edge="1" parent="1">
          <mxGeometry width="50" height="50" relative="1" as="geometry">
            <mxPoint x="40" y="520" as="sourcePoint" />
            <mxPoint x="800" y="520" as="targetPoint" />
          </mxGeometry>
        </mxCell>
        <mxCell id="MbQovPlUdjyoEpwD81Fg-41" value="" style="endArrow=none;html=1;rounded=0;entryX=0;entryY=0;entryDx=0;entryDy=0;" edge="1" parent="1" target="MbQovPlUdjyoEpwD81Fg-44">
          <mxGeometry width="50" height="50" relative="1" as="geometry">
            <mxPoint x="40" y="921.5999755859375" as="sourcePoint" />
            <mxPoint x="40" y="600" as="targetPoint" />
          </mxGeometry>
        </mxCell>
        <mxCell id="MbQovPlUdjyoEpwD81Fg-42" value="" style="endArrow=none;html=1;rounded=0;" edge="1" parent="1">
          <mxGeometry width="50" height="50" relative="1" as="geometry">
            <mxPoint x="40" y="920" as="sourcePoint" />
            <mxPoint x="800" y="920" as="targetPoint" />
          </mxGeometry>
        </mxCell>
        <mxCell id="MbQovPlUdjyoEpwD81Fg-43" value="" style="endArrow=none;html=1;rounded=0;" edge="1" parent="1">
          <mxGeometry width="50" height="50" relative="1" as="geometry">
            <mxPoint x="800" y="920" as="sourcePoint" />
            <mxPoint x="800" y="520" as="targetPoint" />
          </mxGeometry>
        </mxCell>
        <mxCell id="MbQovPlUdjyoEpwD81Fg-44" value="LOOP" style="rounded=0;whiteSpace=wrap;html=1;" vertex="1" parent="1">
          <mxGeometry x="40" y="520" width="40" height="20" as="geometry" />
        </mxCell>
        <mxCell id="MbQovPlUdjyoEpwD81Fg-46" value="" style="endArrow=none;html=1;rounded=0;" edge="1" parent="1">
          <mxGeometry width="50" height="50" relative="1" as="geometry">
            <mxPoint x="80" y="680" as="sourcePoint" />
            <mxPoint x="760" y="680" as="targetPoint" />
          </mxGeometry>
        </mxCell>
        <mxCell id="MbQovPlUdjyoEpwD81Fg-47" value="" style="endArrow=none;html=1;rounded=0;" edge="1" parent="1">
          <mxGeometry width="50" height="50" relative="1" as="geometry">
            <mxPoint x="80" y="900" as="sourcePoint" />
            <mxPoint x="80" y="680" as="targetPoint" />
          </mxGeometry>
        </mxCell>
        <mxCell id="MbQovPlUdjyoEpwD81Fg-48" value="ALT" style="rounded=0;whiteSpace=wrap;html=1;" vertex="1" parent="1">
          <mxGeometry x="80" y="680" width="40" height="20" as="geometry" />
        </mxCell>
      </root>
    </mxGraphModel>
  </diagram>
</mxfile>
